<mxfile host="Electron" agent="Mozilla/5.0 (Windows NT 10.0; Win64; x64) AppleWebKit/537.36 (KHTML, like Gecko) draw.io/24.7.17 Chrome/128.0.6613.36 Electron/32.0.1 Safari/537.36" version="24.7.17">
  <diagram id="scaleMovements" name="scaleMovements">
    <mxGraphModel dx="566" dy="848" grid="1" gridSize="10" guides="1" tooltips="1" connect="1" arrows="1" fold="1" page="1" pageScale="1" pageWidth="827" pageHeight="1169" math="0" shadow="0">
      <root>
        <mxCell id="0" />
        <mxCell id="1" parent="0" />
        <mxCell id="yZnXnvH5843gjCiiUlLy-10" value="Coordinate Scaling" style="swimlane;whiteSpace=wrap;html=1;startSize=23;" vertex="1" parent="1">
          <mxGeometry x="100" y="120" width="170" height="530" as="geometry">
            <mxRectangle x="60" y="40" width="140" height="30" as="alternateBounds" />
          </mxGeometry>
        </mxCell>
        <mxCell id="2" value="ScaleMove" style="ellipse;whiteSpace=wrap;html=1;fillColor=#1f1f1f;strokeColor=#666666;fontColor=#FFFFFF;" parent="yZnXnvH5843gjCiiUlLy-10" vertex="1">
          <mxGeometry x="25" y="40" width="120" height="60" as="geometry" />
        </mxCell>
        <mxCell id="3" value="Calculate scale&#xa;(height/18.0)" style="rounded=0;fillColor=#1f1f1f;strokeColor=#666666;fontColor=#FFFFFF;" parent="yZnXnvH5843gjCiiUlLy-10" vertex="1">
          <mxGeometry x="25" y="140" width="120" height="60" as="geometry" />
        </mxCell>
        <mxCell id="4" value="Scale X&#xa;coordinate" style="rounded=0;fillColor=#1f1f1f;strokeColor=#666666;fontColor=#FFFFFF;" parent="yZnXnvH5843gjCiiUlLy-10" vertex="1">
          <mxGeometry x="25" y="240" width="120" height="60" as="geometry" />
        </mxCell>
        <mxCell id="5" value="Scale Y&#xa;coordinate" style="rounded=0;fillColor=#1f1f1f;strokeColor=#666666;fontColor=#FFFFFF;" parent="yZnXnvH5843gjCiiUlLy-10" vertex="1">
          <mxGeometry x="25" y="340" width="120" height="60" as="geometry" />
        </mxCell>
        <mxCell id="6" value="return" style="ellipse;whiteSpace=wrap;html=1;fillColor=#1f1f1f;strokeColor=#666666;fontColor=#FFFFFF;" parent="yZnXnvH5843gjCiiUlLy-10" vertex="1">
          <mxGeometry x="25" y="450" width="120" height="60" as="geometry" />
        </mxCell>
        <mxCell id="7" value="" style="endArrow=classic;html=1;exitX=0.5;exitY=1;entryX=0.5;entryY=0;fontColor=#FFFFFF;" parent="yZnXnvH5843gjCiiUlLy-10" source="2" target="3" edge="1">
          <mxGeometry width="50" height="50" relative="1" as="geometry" />
        </mxCell>
        <mxCell id="8" value="" style="endArrow=classic;html=1;exitX=0.5;exitY=1;entryX=0.5;entryY=0;fontColor=#FFFFFF;" parent="yZnXnvH5843gjCiiUlLy-10" source="3" target="4" edge="1">
          <mxGeometry width="50" height="50" relative="1" as="geometry" />
        </mxCell>
        <mxCell id="9" value="" style="endArrow=classic;html=1;exitX=0.5;exitY=1;entryX=0.5;entryY=0;fontColor=#FFFFFF;" parent="yZnXnvH5843gjCiiUlLy-10" source="4" target="5" edge="1">
          <mxGeometry width="50" height="50" relative="1" as="geometry" />
        </mxCell>
        <mxCell id="10" value="" style="endArrow=classic;html=1;exitX=0.5;exitY=1;entryX=0.5;entryY=0;fontColor=#FFFFFF;entryDx=0;entryDy=0;" parent="yZnXnvH5843gjCiiUlLy-10" source="5" target="6" edge="1">
          <mxGeometry width="50" height="50" relative="1" as="geometry">
            <mxPoint x="84.99999999999977" y="440" as="targetPoint" />
          </mxGeometry>
        </mxCell>
        <mxCell id="yZnXnvH5843gjCiiUlLy-41" style="edgeStyle=orthogonalEdgeStyle;rounded=0;orthogonalLoop=1;jettySize=auto;html=1;exitX=0.5;exitY=1;exitDx=0;exitDy=0;entryX=0.5;entryY=0;entryDx=0;entryDy=0;" edge="1" parent="1" source="yZnXnvH5843gjCiiUlLy-40" target="yZnXnvH5843gjCiiUlLy-10">
          <mxGeometry relative="1" as="geometry" />
        </mxCell>
        <mxCell id="yZnXnvH5843gjCiiUlLy-43" value="Called from processWord()" style="edgeLabel;html=1;align=center;verticalAlign=middle;resizable=0;points=[];" vertex="1" connectable="0" parent="yZnXnvH5843gjCiiUlLy-41">
          <mxGeometry x="-0.2409" y="-1" relative="1" as="geometry">
            <mxPoint as="offset" />
          </mxGeometry>
        </mxCell>
        <mxCell id="yZnXnvH5843gjCiiUlLy-40" value="" style="ellipse;whiteSpace=wrap;html=1;fillColor=#1f1f1f;strokeColor=#666666;fontColor=#FFFFFF;" vertex="1" parent="1">
          <mxGeometry x="175" y="20" width="20" height="20" as="geometry" />
        </mxCell>
        <mxCell id="yZnXnvH5843gjCiiUlLy-45" value="" style="ellipse;whiteSpace=wrap;html=1;fillColor=#1f1f1f;strokeColor=#666666;fontColor=#FFFFFF;" vertex="1" parent="1">
          <mxGeometry x="175" y="700" width="20" height="20" as="geometry" />
        </mxCell>
        <mxCell id="yZnXnvH5843gjCiiUlLy-46" value="" style="edgeStyle=orthogonalEdgeStyle;rounded=0;orthogonalLoop=1;jettySize=auto;html=1;exitX=0.5;exitY=1;exitDx=0;exitDy=0;" edge="1" parent="1" source="6" target="yZnXnvH5843gjCiiUlLy-45">
          <mxGeometry relative="1" as="geometry">
            <mxPoint x="285.20000000000005" y="830" as="targetPoint" />
            <mxPoint x="285" y="750" as="sourcePoint" />
          </mxGeometry>
        </mxCell>
        <mxCell id="yZnXnvH5843gjCiiUlLy-47" value="Return to processWord()" style="edgeLabel;html=1;align=center;verticalAlign=middle;resizable=0;points=[];" vertex="1" connectable="0" parent="yZnXnvH5843gjCiiUlLy-46">
          <mxGeometry x="0.08" y="-2" relative="1" as="geometry">
            <mxPoint x="2" as="offset" />
          </mxGeometry>
        </mxCell>
      </root>
    </mxGraphModel>
  </diagram>
</mxfile>
